HIERARCHY
ROOT hip
{
	OFFSET 0.000000 0.000000 0.000000 
	CHANNELS 6 Xposition Yposition Zposition Xrotation Zrotation Yrotation
	JOINT abdomen
	{
		OFFSET 0.000000 3.402643 0.000000 
		CHANNELS 3 Xrotation Zrotation Yrotation
		JOINT chest
		{
			OFFSET 0.000000 8.438565 -0.680529 
			CHANNELS 3 Xrotation Zrotation Yrotation
			JOINT neck
			{
				OFFSET 0.000000 10.207942 -0.272212 
				CHANNELS 3 Xrotation Zrotation Yrotation
				JOINT head
				{
					OFFSET 0.000000 3.130431 0.000000 
					CHANNELS 3 Xrotation Zrotation Yrotation
					End Site
					{
						OFFSET 0.000000 3.130435 0.000000 
					}
				}
			}
			JOINT lCollar
			{
				OFFSET 3.470700 6.669187 -0.816635 
				CHANNELS 3 Yrotation Zrotation Xrotation
				JOINT lShldr
				{
					OFFSET 3.198488 0.000000 0.000000 
					CHANNELS 3 Zrotation Yrotation Xrotation
					JOINT lForeArm
					{
						OFFSET 10.139888 0.000000 0.000000 
						CHANNELS 3 Yrotation Zrotation Xrotation
						JOINT lHand
						{
							OFFSET 8.370511 0.000000 0.000000 
							CHANNELS 3 Zrotation Yrotation Xrotation
							End Site
							{
								OFFSET 4.083176 0.000000 0.000000 
							}
						}
					}
				}
			}
			JOINT rCollar
			{
				OFFSET -3.470700 6.669187 -0.816635 
				CHANNELS 3 Yrotation Zrotation Xrotation
				JOINT rShldr
				{
					OFFSET -3.198488 0.000000 0.000000 
					CHANNELS 3 Zrotation Yrotation Xrotation
					JOINT rForeArm
					{
						OFFSET -10.139888 0.000000 0.000000 
						CHANNELS 3 Yrotation Zrotation Xrotation
						JOINT rHand
						{
							OFFSET -8.370511 0.000000 0.000000 
							CHANNELS 3 Zrotation Yrotation Xrotation
							End Site
							{
								OFFSET -4.083176 0.000000 0.000000 
							}
						}
					}
				}
			}
		}
	}
	JOINT lThigh
	{
		OFFSET 5.308129 -1.633274 1.361059 
		CHANNELS 3 Xrotation Zrotation Yrotation
		JOINT lShin
		{
			OFFSET -2.041588 -20.007561 0.000000 
			CHANNELS 3 Xrotation Zrotation Yrotation
			JOINT lFoot
			{
				OFFSET 0.000000 -19.190928 -1.224953 
				CHANNELS 3 Xrotation Yrotation Zrotation
				End Site
				{
					OFFSET 0.000000 -2.449906 4.627600 
				}
			}
		}
	}
	JOINT rThigh
	{
		OFFSET -5.308129 -1.633274 1.361059 
		CHANNELS 3 Xrotation Zrotation Yrotation
		JOINT rShin
		{
			OFFSET 2.041588 -20.007561 0.000000 
			CHANNELS 3 Xrotation Zrotation Yrotation
			JOINT rFoot
			{
				OFFSET 0.000000 -19.190928 -1.224953 
				CHANNELS 3 Xrotation Yrotation Zrotation
				End Site
				{
					OFFSET 0.000000 -2.449906 4.627600 
				}
			}
		}
	}
}
MOTION
Frames: 13
Frame Time: 0.016667
1.185371 52.473587 50.111263 -13.430661 22.318604 -110.205910 -1.644002 -2.907533 -2.434948 0.000000 0.000000 0.000000 9.695347 -18.530014 37.022503 0.000000 0.000000 0.000000 0.000000 0.000000 0.000000 -3.186283 -39.465366 4.412807 -6.878816 6.667258 -7.862844 23.040918 -7.180935 -5.160633 0.000000 0.000000 0.000000 -58.292980 5.441975 -41.110168 29.089252 -35.401234 -8.486994 -30.160824 6.220166 1.207105 -114.601036 24.160965 -25.724838 128.433807 -3.233869 -30.153400 48.516399 -13.660790 -1.354719 -102.060043 -33.134907 22.961578 134.081436 -4.261902 19.025887 53.810139 16.573479 -0.245099 
1.073990 51.527916 49.342701 -6.954403 20.912060 -101.976379 0.878611 -4.071325 -1.233603 0.000000 0.000000 0.000000 1.629456 -23.018991 47.306080 0.000000 0.000000 0.000000 0.000000 0.000000 0.000000 2.206151 -39.891769 0.054059 -7.527096 7.234338 -8.354224 22.732986 -7.576265 -4.948227 0.000000 0.000000 0.000000 -57.944115 5.268016 -40.961983 28.015959 -34.747299 -9.440829 -29.384045 6.294038 -0.012465 -116.252090 25.840731 -30.980526 127.872093 -3.609141 -30.971216 44.518002 -14.442403 -5.206625 -100.881348 -39.237656 26.176027 129.256882 -4.687302 15.892136 45.657249 16.570419 3.023293 
1.006811 50.615398 48.452576 -1.522184 20.045759 -95.401054 1.681716 -4.853468 -0.255475 0.000000 0.000000 0.000000 -7.274467 -20.538580 55.119499 0.000000 0.000000 0.000000 0.000000 0.000000 0.000000 8.252781 -37.840939 -4.958779 -12.791152 11.597651 -8.912260 18.662689 -8.919631 -7.660015 0.000000 0.000000 0.000000 -53.724072 5.523882 -38.888424 30.640553 -36.454044 -8.973652 -27.805271 6.513572 -5.897609 -104.533409 26.680315 -28.463867 110.939003 -4.906026 -27.969509 36.820885 -15.952828 -8.136398 -88.332436 -39.461140 16.535122 115.500465 -1.961499 13.028153 35.740250 15.485024 6.978101 
0.934665 49.696312 47.566170 3.715711 18.627403 -89.016586 2.469571 -5.644104 0.706439 0.000000 0.000000 0.000000 -15.577434 -16.992004 62.243896 0.000000 0.000000 0.000000 0.000000 0.000000 0.000000 13.793685 -35.356388 -9.458690 -18.222740 16.020826 -9.039680 14.572992 -10.462723 -10.308391 0.000000 0.000000 0.000000 -49.400864 5.654442 -36.742001 33.444847 -38.175533 -8.331379 -26.218140 6.905981 -11.821271 -92.676315 27.051208 -25.820408 93.884354 -5.352120 -24.728214 29.060057 -17.033808 -11.259844 -76.001900 -38.045330 7.139918 101.587616 0.010156 9.661367 26.089262 13.795572 10.600315 
0.486804 48.279953 46.961552 6.645441 18.361052 -84.896240 3.433162 -5.633660 1.137886 0.000000 0.000000 0.000000 -21.921030 -11.786255 63.844482 0.000000 0.000000 0.000000 0.000000 0.000000 0.000000 12.304022 -29.111847 -9.115100 -32.919468 21.670715 -6.129646 5.333458 -13.280930 -15.585923 0.000000 0.000000 0.000000 -38.371677 6.649504 -31.210129 44.778103 -41.731945 -1.339648 -22.400301 8.466485 -21.790657 -77.233810 26.581841 -23.581734 71.085648 -8.327844 -22.527170 25.792995 -15.818621 -13.311022 -64.134689 -32.536064 0.235638 83.200851 2.558625 8.860130 22.907518 12.535476 12.724672 
0.037118 46.843349 46.357956 9.532162 17.915390 -80.779808 4.398565 -5.632716 1.549894 0.000000 0.000000 0.000000 -28.016048 -6.465386 64.795761 0.000000 0.000000 0.000000 0.000000 0.000000 0.000000 10.767972 -22.882954 -8.841010 -48.433952 26.367529 -1.642595 -3.697157 -16.889322 -20.402182 0.000000 0.000000 0.000000 -27.216974 6.626046 -25.518023 57.130394 -44.084511 6.793425 -18.881144 10.652170 -31.599451 -61.993084 25.604849 -21.621254 48.185612 -10.247763 -19.306742 22.574398 -14.429661 -15.285460 -53.772724 -26.070574 -4.865038 64.802025 4.716680 7.297482 19.809824 11.133658 14.760087 
-0.550767 43.875935 45.831665 12.273884 17.598116 -75.325256 5.639393 -4.930572 1.195390 0.000000 0.000000 0.000000 -32.236332 -2.666960 62.040520 0.000000 0.000000 0.000000 0.000000 0.000000 0.000000 -1.937642 -17.345974 -0.318749 -57.807468 27.565365 0.672723 -9.796839 -21.590319 -23.988295 0.000000 0.000000 0.000000 -9.579163 8.587621 -13.580997 65.790619 -43.706997 13.167784 -14.491155 12.119720 -34.944462 -55.375675 24.208670 -23.029198 38.132912 -10.002691 -15.649285 15.533869 -11.161121 -15.657310 -46.069851 -20.446911 -7.890354 51.432774 5.690965 5.182611 15.364977 7.325214 16.604856 
-1.110294 40.953648 45.296741 14.928204 16.993025 -69.895828 6.861014 -4.228050 0.851617 0.000000 0.000000 0.000000 -36.599953 0.874969 59.015148 0.000000 0.000000 0.000000 0.000000 0.000000 0.000000 -13.415553 -10.363711 6.582969 -67.014847 28.301025 3.100507 -15.681085 -26.555292 -27.090841 0.000000 0.000000 0.000000 8.094287 6.938464 -1.591976 73.893547 -42.614994 19.090807 -10.204959 13.760125 -38.007626 -48.869648 22.938942 -24.506699 28.357952 -9.068998 -12.223108 8.499991 -7.869874 -15.573482 -38.981903 -14.568988 -10.018414 38.234322 6.122132 2.963529 10.979336 3.349865 18.069778 
0.451622 41.390312 44.109909 14.228209 12.904866 -64.438438 7.650616 -3.876929 -0.205929 0.000000 0.000000 0.000000 -38.441578 1.278004 55.675255 0.000000 0.000000 0.000000 0.000000 0.000000 0.000000 -29.446011 -8.973157 15.868512 -54.974762 21.236973 -1.309156 -13.106827 -26.303703 -26.807232 0.000000 0.000000 0.000000 25.649195 6.848031 11.707985 57.576515 -36.998413 8.113705 -9.213133 10.565388 -28.064022 -48.930885 20.126486 -20.261887 35.702637 -4.206396 -17.893572 -1.865723 -6.151959 -12.095387 -35.640537 -12.830166 -10.049368 41.589848 5.781132 2.592525 -2.302322 -3.675411 15.202673 
1.997035 41.817841 42.937077 13.134201 8.916645 -59.086704 8.435777 -3.524564 -1.242691 0.000000 0.000000 0.000000 -40.243980 1.545914 52.341728 0.000000 0.000000 0.000000 0.000000 0.000000 0.000000 -44.903446 -5.191472 24.314032 -43.994564 13.527325 -3.911222 -10.555834 -26.006643 -26.541323 0.000000 0.000000 0.000000 42.594872 2.911404 24.295717 43.834225 -29.367481 0.034139 -8.841630 7.283902 -18.332312 -49.180244 17.352753 -16.133783 42.531185 1.256461 -22.806536 -12.195400 -5.112282 -8.416857 -32.338413 -11.120368 -9.994699 44.967293 5.448983 2.232450 -15.964989 -9.767517 10.789840 
2.304939 41.560326 42.813915 9.850438 6.412889 -60.560425 9.496761 -3.700633 -0.978938 0.000000 0.000000 0.000000 -37.995979 -0.352805 49.825462 0.000000 0.000000 0.000000 0.000000 0.000000 0.000000 -56.589809 -3.890105 28.643871 -32.599014 6.882267 -2.577441 -9.107596 -21.930584 -27.831499 0.000000 0.000000 0.000000 53.125484 2.189625 34.354404 26.878119 -17.233452 -10.424509 -12.240756 6.339762 -13.356915 -47.481865 16.649523 -15.720092 47.626820 1.662764 -22.085180 -15.540749 -5.254855 -8.160373 -30.550985 -13.111597 -10.962613 50.051922 3.466237 3.587504 -20.863466 -8.573260 10.317571 
2.600245 41.319088 42.694363 6.651901 3.874199 -61.943348 10.526705 -3.866888 -0.714560 0.000000 0.000000 0.000000 -35.582935 -2.176638 47.222137 0.000000 0.000000 0.000000 0.000000 0.000000 0.000000 -68.069565 -1.737224 32.617706 -21.229824 0.685280 -0.054730 -7.774859 -17.849203 -28.985226 0.000000 0.000000 0.000000 63.280903 -0.311294 44.023144 13.114574 -3.177181 -16.518538 -15.697646 5.713214 -8.455630 -45.784195 15.956161 -15.297928 52.667965 1.995671 -21.341713 -18.873631 -5.375346 -7.905666 -28.726467 -15.065181 -11.960861 55.004288 1.386734 4.834693 -25.660408 -7.355091 9.916254 
1.950847 42.298782 42.845520 5.009672 4.567590 -67.286308 9.287109 -2.822266 -0.000481 0.000000 0.000000 0.000000 -27.475792 -5.975656 43.438099 0.000000 0.000000 0.000000 0.000000 0.000000 0.000000 -75.346725 2.125788 36.380386 -17.509712 -1.145016 -3.345498 -5.834844 -15.072173 -30.015850 0.000000 0.000000 0.000000 66.450233 -2.999690 46.272091 9.401303 -1.166540 -16.715797 -18.104223 6.382977 -11.822371 -42.706169 16.776033 -13.878039 52.549942 0.718233 -20.612465 -18.039400 -3.679294 -7.591043 -28.277922 -15.759306 -10.439014 53.262047 1.199817 6.736165 -24.537659 -5.237652 9.713173 
